# xmcd
#
# Track frame offsets: 
#        183
#        8985
#        20763
#        29790
#        39538
#        49403
#        61305
#        72340
#        84830
#        97038
#        107583
#        116985
#        131250
#        141628
#        151533
#        161103
#        171800
#        183118
#
# Disc length: 2594 seconds
#
# Revision: 2
# Processed by: cddbd v1.5.2PL0 Copyright (c) Steve Scherf et al.
# Submitted via: ExactAudioCopyFreeDBPlugin 1.0
#
DISCID=f90a2012
DTITLE=Sam Cooke - You Send Me
DYEAR=1900
DGENRE=Blues
TTITLE0=Only sixteen
TTITLE1=Everybody loves to cha cha cha
TTITLE2=There I've said it again
TTITLE3=Stealaway
TTITLE4=Lover come back to me
TTITLE5=Moonlight  in Vermont
TTITLE6=Comes love
TTITLE7=You send me
TTITLE8=Win your love for me
TTITLE9=I love you most of all
TTITLE10=Good morning heartache
TTITLE11=Talk of the town
TTITLE12=The little things you do
TTITLE13=Stealing kisses
TTITLE14=Wonderful World
TTITLE15=T'aint nobody's businnes if do
TTITLE16=I've got a righy to sing the blues
TTITLE17=God bless this child
EXTD=ID3G: 0
EXTT0=
EXTT1=
EXTT2=
EXTT3=
EXTT4=
EXTT5=
EXTT6=
EXTT7=
EXTT8=
EXTT9=
EXTT10=
EXTT11=
EXTT12=
EXTT13=
EXTT14=
EXTT15=
EXTT16=
EXTT17=
PLAYORDER=
